<svg width="73" height="24" viewBox="0 0 73 24" xmlns="http://www.w3.org/2000/svg" xmlns:xlink="http://www.w3.org/1999/xlink"><defs><path id="prefix__a" d="M0 .088h17.811V18H0z"/><path id="prefix__c" d="M0 23.907h72.78V0H0z"/></defs><g fill="none" fill-rule="evenodd"><g transform="translate(0 5.907)"><mask id="prefix__b" fill="#fff"><use xlink:href="#prefix__a"/></mask><path d="M9.186 3.914c1.784 0 3.227.759 4.025 2.307h4.6C16.674 2.578 13.541.088 9.243.088 2.885.088 0 5.007 0 8.922 0 13.114 3.007 18 9.396 18c4.236 0 7.154-2.459 8.414-6.012l-4.6.001c-1.138 2.066-3.318 2.186-4.024 2.186-3.133 0-5.098-2.306-5.098-5.192 0-2.702 1.843-5.07 5.098-5.07" fill="#FFF" mask="url(#prefix__b)"/></g><path d="M28.108 20.081c-3.01 0-4.945-2.368-4.945-5.1 0-2.734 1.902-5.161 4.945-5.161s4.944 2.43 4.944 5.162c0 2.731-1.934 5.1-4.944 5.1m-.003-14.088c-5.221 0-9.03 4.069-9.03 8.988 0 4.886 3.845 8.924 9.033 8.924 5.188 0 9.026-4.036 9.026-8.924h-.003c0-4.92-3.805-8.988-9.026-8.988M39.907 5.83v.71h-1.693v3.582h1.693V23.36h4.083V10.12h2.579V6.54h-2.58v-.711c0-.85.477-1.793 2.058-1.793h.522V.003H45.8c-3.499 0-5.894 2.062-5.894 5.827" fill="#FFF"/><mask id="prefix__d" fill="#fff"><use xlink:href="#prefix__c"/></mask><path fill="#FFF" mask="url(#prefix__d)" d="M49.191 4.036h4.084V0h-4.084zM49.191 23.362h4.084V6.541h-4.084zM66.36 14.736l5.852-8.195h-4.881l-3.63 5.24-3.631-5.24h-4.885l5.719 8.195-6.221 8.626h5.184l3.867-5.644 3.868 5.644h5.178z"/></g></svg>